<svg width="24" height="24" viewBox="0 0 24 24" fill="none" xmlns="http://www.w3.org/2000/svg">
<g clip-path="url(#clip0_55433_26307)">
<path d="M14 4C15.8613 4 16.7918 4.00041 17.5449 4.24512C19.0671 4.73971 20.2603 5.93289 20.7549 7.45508C20.9996 8.20824 21 9.13874 21 11C21 12.8613 20.9996 13.7918 20.7549 14.5449C20.2603 16.0671 19.0671 17.2603 17.5449 17.7549C16.7918 17.9996 15.8613 18 14 18H10C9.8047 18 9.61714 18.0755 9.47756 18.2121L6.76465 20.8672C6.47976 21.1456 6 20.9434 6 20.5449V18.2347C6 17.8371 5.7594 17.485 5.41886 17.2798C4.39944 16.6655 3.62065 15.7007 3.24512 14.5449C3.00041 13.7918 3 12.8613 3 11C3 9.13874 3.00041 8.20824 3.24512 7.45508C3.73971 5.93289 4.93289 4.73971 6.45508 4.24512C7.20824 4.00041 8.13874 4 10 4H14Z" fill="#EDA600"/>
<circle cx="8" cy="11" r="1" fill="white"/>
<circle cx="12" cy="11" r="1" fill="white"/>
<circle cx="16" cy="11" r="1" fill="white"/>
</g>
<defs>
<clipPath id="clip0_55433_26307">
<rect width="24" height="24" fill="white"/>
</clipPath>
</defs>
</svg>
