<svg width="24" height="24" viewBox="0 0 24 24" fill="none" xmlns="http://www.w3.org/2000/svg">
<g clip-path="url(#clip0_55433_26327)">
<path d="M12 3C13.1935 3 14.3381 3.47411 15.182 4.31802C16.0259 5.16193 16.5 6.30653 16.5 7.5C16.5 8.69347 16.0259 9.83807 15.182 10.682C14.3381 11.5259 13.1935 12 12 12C10.8065 12 9.66193 11.5259 8.81802 10.682C7.97411 9.83807 7.5 8.69347 7.5 7.5C7.5 6.30653 7.97411 5.16193 8.81802 4.31802C9.66193 3.47411 10.8065 3 12 3ZM12 13.5C16.9725 13.5 21 17.5138 21 20C21 20.5523 20.5523 21 20 21H4C3.44772 21 3 20.5523 3 20C3 17.5138 7.0275 13.5 12 13.5Z" fill="#A5A5A5"/>
</g>
<defs>
<clipPath id="clip0_55433_26327">
<rect width="24" height="24" fill="white"/>
</clipPath>
</defs>
</svg>
